<?xml version="1.0" encoding="UTF-8"?>
<svg xmlns="http://www.w3.org/2000/svg" width="40" height="52" viewBox="18 14.67 32.56 48.66" preserveAspectRatio="xMidYMid meet">
	<defs>
		<style>
			.st0 { fill: #005862; }
			.st1 { fill: #00918b; }
		</style>
	</defs>
	<g>
		<path class="st1" d="M47.62,48.82v5.47l2.92,1.14v-6.62c0-4.05-1.21-7.96-3.49-11.3-2.28-3.35-5.48-5.89-9.25-7.37l-7.75-3.04v3.13l6.69,2.62c6.61,2.59,10.89,8.85,10.89,15.96Z" />
		<path class="st0" d="M46.99,58.05h0s-15.72-6.15-15.72-6.15c-.05-.02-.09-.04-.13-.06l-.19-.07h0c-2.72-1.22-4.47-3.87-4.47-6.88v-2.62h0V14.67h0c-1.61,0-2.92,1.31-2.92,2.92v27.31c0,4.33,2.61,8.15,6.64,9.72l16.78,6.57c1.4.55,2.92-.49,2.92-1.99h0s-2.92-1.14-2.92-1.14Z" />
		<path class="st0" d="M38.04,60.68c-.59,1.5-2.28,2.24-3.78,1.65l-6.17-2.42c-6.13-2.4-10.09-8.21-10.09-14.8v-22.18c0-1.61,1.31-2.92,2.92-2.92h0v25.09c0,5.37,3.23,10.12,8.24,12.08l8.89,3.49h0Z" />
		<path class="st1" d="M42.04,49.48v2.56l2.92,1.14v-3.7c0-6.57-3.95-12.37-10.07-14.78l-4.85-1.91v3.14l3.78,1.49c4.99,1.96,8.22,6.7,8.22,12.06Z" />
		<path class="st1" d="M36.45,49.84l2.93,1.15v-.7c0-4.97-2.98-9.35-7.6-11.17l-1.74-.68v3.14l.67.26c3.36,1.32,5.57,4.43,5.74,8.01Z" />
	</g>
</svg>
