<?xml version="1.0" encoding="UTF-8"?>
<svg xmlns="http://www.w3.org/2000/svg" version="1.1" viewBox="0 0 32 32">
  <defs>
    <style>
      .cls-1 {
        fill: #0e807b;
      }

      .cls-2 {
        fill: #fff;
      }
    </style>
  </defs>
  <g>
    <g id="Layer_1">
      <rect class="cls-2" x="0" y="0" width="32" height="32"/>
      <g>
        <path class="cls-1" d="M24.1,22.2v3.3l1.8.7v-4c0-2.4-.7-4.8-2.1-6.8-1.4-2-3.3-3.6-5.6-4.5l-4.7-1.8v1.9l4,1.6c4,1.6,6.6,5.4,6.6,9.6Z"/>
        <path class="cls-1" d="M23.7,27.8h0s-9.5-3.7-9.5-3.7c0,0,0,0,0,0h-.1s0,0,0,0c-1.6-.7-2.7-2.3-2.7-4.2v-1.6h0V1.5h0c-1,0-1.8.8-1.8,1.8v16.5c0,2.6,1.6,4.9,4,5.9l10.1,4c.8.3,1.8-.3,1.8-1.2h0s-1.8-.7-1.8-.7Z"/>
        <path class="cls-1" d="M18.3,29.3c-.4.9-1.4,1.4-2.3,1l-3.7-1.5c-3.7-1.5-6.1-5-6.1-8.9V6.5c0-1,.8-1.8,1.8-1.8h0v15.2c0,3.2,2,6.1,5,7.3l5.4,2.1h0Z"/>
        <path class="cls-1" d="M20.7,22.6v1.5l1.8.7v-2.2c0-4-2.4-7.5-6.1-8.9l-2.9-1.2v1.9l2.3.9c3,1.2,5,4,5,7.3Z"/>
        <path class="cls-1" d="M17.3,22.8l1.8.7v-.4c0-3-1.8-5.7-4.6-6.8l-1.1-.4v1.9l.4.2c2,.8,3.4,2.7,3.5,4.8Z"/>
      </g>
    </g>
  </g>
</svg>
